<svg width="40" height="40" viewBox="0 0 40 40" fill="none" xmlns="http://www.w3.org/2000/svg">
<path d="M29.3438 35.4754C29.3438 36.5404 30.2073 37.404 31.2723 37.404C32.3377 37.404 33.2009 36.5404 33.2009 35.4754C33.2009 34.4105 32.3377 33.5469 31.2723 33.5469C30.2073 33.5469 29.3438 34.4104 29.3438 35.4754Z" stroke="black" stroke-linecap="round" stroke-linejoin="round"/>
<path d="M10.7734 35.4754C10.7734 36.5404 11.6369 37.404 12.702 37.404C13.7672 37.404 14.6306 36.5404 14.6306 35.4754C14.6306 34.4105 13.7672 33.5469 12.702 33.5469C11.6369 33.5469 10.7734 34.4105 10.7734 35.4754Z" stroke="black" stroke-linecap="round" stroke-linejoin="round"/>
<path d="M27.4386 18.5742H18.8672" stroke="black" stroke-linecap="round" stroke-linejoin="round"/>
<path d="M23.1562 14.2852V22.8566" stroke="black" stroke-linecap="round" stroke-linejoin="round"/>
<path d="M1.42969 1.42969H8.57254L9.32443 8.57254M9.32443 8.57254L11.1604 26.0145C11.3135 27.4686 12.5397 28.5725 14.0019 28.5725H32.056C33.3671 28.5725 34.51 27.6803 34.828 26.4084L38.3994 12.1227C38.8503 10.3194 37.4863 8.57254 35.6274 8.57254H9.32443Z" stroke="black" stroke-linecap="round" stroke-linejoin="round"/>
</svg>
