<svg width="14" height="14" viewBox="0 0 14 14" fill="none" xmlns="http://www.w3.org/2000/svg">
<g clip-path="url(#clip0_300_17294)">
<path d="M6.9974 12.8346C10.219 12.8346 12.8307 10.2229 12.8307 7.0013C12.8307 3.77964 10.219 1.16797 6.9974 1.16797C3.77573 1.16797 1.16406 3.77964 1.16406 7.0013C1.16406 10.2229 3.77573 12.8346 6.9974 12.8346Z" stroke="black" stroke-linecap="round" stroke-linejoin="round"/>
<path d="M6.9974 11.0846C7.31956 11.0846 7.58073 10.8235 7.58073 10.5013C7.58073 10.1791 7.31956 9.91797 6.9974 9.91797C6.67523 9.91797 6.41406 10.1791 6.41406 10.5013C6.41406 10.8235 6.67523 11.0846 6.9974 11.0846Z" fill="black"/>
<path d="M7.58073 3.5013C7.58073 3.17914 7.31956 2.91797 6.9974 2.91797C6.67523 2.91797 6.41406 3.17914 6.41406 3.5013V8.16797C6.41406 8.49014 6.67523 8.7513 6.9974 8.7513C7.31956 8.7513 7.58073 8.49014 7.58073 8.16797V3.5013Z" fill="black"/>
</g>
<defs>
<clipPath id="clip0_300_17294">
<rect width="14" height="14" fill="white"/>
</clipPath>
</defs>
</svg>
