<svg width="14" height="14" viewBox="0 0 14 14" fill="none" xmlns="http://www.w3.org/2000/svg">
<path d="M10.3281 8.66667L11.9948 8.25L12.4115 9.91667" stroke="#000001" stroke-linecap="round" stroke-linejoin="round"/>
<path d="M11.9969 8.25C11.6267 9.29884 10.9544 10.2147 10.0646 10.882C9.17483 11.5493 8.1074 11.9383 6.99688 12C5.9703 12.0002 4.96856 11.6844 4.12769 11.0955C3.28683 10.5066 2.64762 9.67313 2.29688 8.70833" stroke="#000001" stroke-linecap="round" stroke-linejoin="round"/>
<path d="M3.66146 5.33203L1.99479 5.7487L1.57812 4.08203" stroke="#000001" stroke-linecap="round" stroke-linejoin="round"/>
<path d="M1.99219 5.75C2.69219 3.83333 4.84219 2 6.99219 2C8.02376 2.0029 9.02919 2.3248 9.87063 2.92156C10.7121 3.51833 11.3483 4.36075 11.6922 5.33333" stroke="#000001" stroke-linecap="round" stroke-linejoin="round"/>
</svg>
